<?xml version="1.0" encoding="UTF-8"?>
<svg width="125px" height="125px" viewBox="0 0 125 125" version="1.1" xmlns="http://www.w3.org/2000/svg" xmlns:xlink="http://www.w3.org/1999/xlink">
    <!-- Generator: Sketch 43.1 (39012) - http://www.bohemiancoding.com/sketch -->
    <title>call to action</title>
    <desc>Created with Sketch.</desc>
    <defs></defs>
    <g id="Page-1" stroke="none" stroke-width="1" fill="none" fill-rule="evenodd">
        <g id="Artboard-5" transform="translate(-1179.000000, -261.000000)">
            <g id="call-to-action" transform="translate(1179.000000, 261.000000)">
                <rect id="Rectangle-16" fill="#313840" x="0" y="0" width="125" height="125"></rect>
                <rect id="Rectangle-21" stroke="#3EB0F7" stroke-width="2" x="31" y="70" width="61" height="20"></rect>
                <g id="arrow" transform="translate(60.000000, 15.000000)">
                    <polygon id="Triangle" fill="#DDDDDD" points="1.5 0 3 16 0 16"></polygon>
                    <path d="M1.5,39.5 L1.5,13.5" id="Line" stroke="#DDDDDD" stroke-linecap="square"></path>
                </g>
                <g id="arrow-copy-2" transform="translate(30.202796, 40.202796) rotate(-45.000000) translate(-30.202796, -40.202796) translate(28.702796, 20.202796)">
                    <polygon id="Triangle" fill="#DDDDDD" points="1.5 0 3 16 0 16"></polygon>
                    <path d="M1.5,39.5 L1.5,13.5" id="Line" stroke="#DDDDDD" stroke-linecap="square"></path>
                </g>
                <g id="arrow-copy-3" transform="translate(97.202796, 40.202796) rotate(45.000000) translate(-97.202796, -40.202796) translate(95.702796, 20.202796)">
                    <polygon id="Triangle" fill="#DDDDDD" points="1.5 0 3 16 0 16"></polygon>
                    <path d="M1.5,39.5 L1.5,13.5" id="Line" stroke="#DDDDDD" stroke-linecap="square"></path>
                </g>
                <text id="action" font-family="VarelaRound-Regular, Varela Round" font-size="14" font-weight="normal" letter-spacing="0.700000048" fill="#DDDDDD">
                    <tspan x="39.2569999" y="84">action</tspan>
                </text>
            </g>
        </g>
    </g>
</svg>